<svg width="112" height="117" viewBox="0 0 112 117" fill="none" xmlns="http://www.w3.org/2000/svg">
<g clip-path="url(#clip0_230_884)">
<path d="M111.997 39.1348C89.6253 45.9844 72.5768 52.3639 60.8517 58.2733C66.2426 60.9594 73.1832 63.9141 81.6738 67.1374C90.1644 70.2265 97.3068 72.7111 103.102 74.5914L111.997 77.4118L100.677 97.1545C83.4258 81.1723 69.2749 69.6221 58.2237 62.5039C58.628 68.4134 59.5714 75.8673 61.0539 84.8657C62.6711 93.73 64.1536 101.184 65.5013 107.228L67.5229 116.092H44.4771C49.5984 93.6626 52.4959 75.8673 53.1698 62.7054C48.3181 66.063 42.3881 70.6294 35.3801 76.4045C28.372 82.0453 22.6442 86.9474 18.1969 91.1104L11.3235 97.1545L0.00280762 77.4118C22.24 70.9651 39.2211 64.6528 50.9461 58.4748C45.5553 55.7887 38.6146 52.8339 30.124 49.6107C21.6335 46.3873 14.4907 43.8355 8.69551 41.9553L0.00280762 39.1348L11.3235 19.3921C28.0351 35.1057 41.9839 46.5887 53.1698 53.8413C52.7655 47.9319 51.8222 40.5451 50.3396 31.6809C48.992 22.6825 47.7116 15.2286 46.4987 9.31921L44.4771 0.455078H67.5229C62.1321 23.0183 59.0323 40.948 58.2237 54.2442C63.2103 51.0208 69.2075 46.5216 76.2156 40.7466C83.3584 34.8371 89.221 29.8007 93.8031 25.6372L100.677 19.3921L111.997 39.1348Z" fill="#F5F5F5"/>
</g>
<defs>
<clipPath id="clip0_230_884">
<rect width="112" height="116.547" fill="white"/>
</clipPath>
</defs>
</svg>
