<svg width="112" height="117" viewBox="0 0 112 117" fill="none" xmlns="http://www.w3.org/2000/svg">
<path d="M111.997 39.1351C89.6254 45.9847 72.5769 52.3642 60.8518 58.2736C66.2427 60.9597 73.1833 63.9143 81.674 67.1377C90.1645 70.2267 97.3069 72.7114 103.102 74.5916L111.997 77.412L100.677 97.1547C83.4259 81.1725 69.275 69.6223 58.2238 62.5041C58.6282 68.4136 59.5716 75.8675 61.054 84.8659C62.6712 93.7302 64.1538 101.184 65.5014 107.228L67.523 116.092H44.4773C49.5985 93.6629 52.4961 75.8675 53.1699 62.7056C48.3182 66.0633 42.3883 70.6296 35.3802 76.4047C28.3721 82.0455 22.6444 86.9477 18.197 91.1107L11.3236 97.1547L0.00292969 77.412C22.2401 70.9653 39.2212 64.653 50.9463 58.4751C45.5554 55.7889 38.6147 52.8342 30.1241 49.6109C21.6336 46.3876 14.4908 43.8358 8.69563 41.9555L0.00292969 39.1351L11.3236 19.3923C28.0352 35.1059 41.984 46.589 53.1699 53.8415C52.7657 47.9321 51.8223 40.5453 50.3398 31.6812C48.9921 22.6827 47.7117 15.2288 46.4988 9.31945L44.4773 0.455322H67.523C62.1322 23.0185 59.0324 40.9482 58.2238 54.2444C63.2104 51.0211 69.2076 46.5219 76.2157 40.7468C83.3585 34.8373 89.2211 29.8009 93.8032 25.6375L100.677 19.3923L111.997 39.1351Z" fill="#101010"/>
</svg>
