<svg width="11" height="11" viewBox="0 0 11 11" fill="none" xmlns="http://www.w3.org/2000/svg">
<path d="M4.07478 0.2144C4.09115 -0.0149056 4.47131 -0.0839146 4.57884 0.123612C5.0847 1.0965 5.95068 2.53304 6.95717 3.22441C7.9637 3.91369 9.5996 4.19318 10.6754 4.30464C10.9047 4.32905 10.9847 4.71286 10.7814 4.81356C9.82847 5.28742 8.42759 6.10672 7.77288 7.09281C7.11818 8.0789 6.89833 9.71114 6.82455 10.787C6.80818 11.0163 6.42598 11.0831 6.32054 10.8757C5.81469 9.90279 4.94865 8.46834 3.94008 7.77684C2.9336 7.08548 1.29764 6.80807 0.223915 6.69674C-0.00540829 6.67233 -0.0874205 6.2863 0.115813 6.18769C1.06877 5.71384 2.47174 4.89466 3.1265 3.90648C3.77912 2.92026 4.00106 1.28815 4.07478 0.2144Z" fill="#101010"/>
</svg>
